<?xml version="1.0" encoding="UTF-8" standalone="no"?>
<!DOCTYPE svg PUBLIC "-//W3C//DTD SVG 1.1//EN" "http://www.w3.org/Graphics/SVG/1.1/DTD/svg11.dtd">
<svg width="100%" height="100%" viewBox="0 0 100 100" version="1.1" xmlns="http://www.w3.org/2000/svg" xmlns:xlink="http://www.w3.org/1999/xlink" xml:space="preserve" xmlns:serif="http://www.serif.com/" style="fill-rule:evenodd;clip-rule:evenodd;stroke-linejoin:round;stroke-miterlimit:2;">
    <g transform="matrix(1.01695,0,0,1.01695,-0.574465,-0.945907)">
        <rect x="1.548" y="1.913" width="96.367" height="96.367" style="fill:white;"/>
        <path d="M97.915,1.913L97.915,98.28L1.548,98.28L1.548,1.913L97.915,1.913ZM95.457,4.372L4.007,4.372L4.007,95.822L95.457,95.822L95.457,4.372Z"/>
    </g>
    <g transform="matrix(5.75759,0,0,5.75759,-112.92,-214.059)">
        <g transform="matrix(12,0,0,12,24.2996,49.4417)">
            <path d="M0.534,-0.029C0.513,-0.014 0.486,-0.003 0.453,0.004C0.42,0.011 0.386,0.014 0.351,0.014C0.309,0.014 0.269,0.008 0.232,-0.006C0.194,-0.019 0.161,-0.04 0.132,-0.069C0.103,-0.097 0.081,-0.135 0.064,-0.182C0.047,-0.228 0.038,-0.284 0.038,-0.35C0.038,-0.419 0.048,-0.476 0.067,-0.523C0.086,-0.569 0.11,-0.606 0.141,-0.635C0.171,-0.663 0.205,-0.683 0.242,-0.696C0.279,-0.708 0.317,-0.714 0.354,-0.714C0.394,-0.714 0.428,-0.711 0.456,-0.706C0.483,-0.701 0.506,-0.694 0.524,-0.687L0.497,-0.571C0.482,-0.578 0.464,-0.584 0.443,-0.587C0.422,-0.59 0.396,-0.592 0.366,-0.592C0.311,-0.592 0.266,-0.572 0.233,-0.533C0.199,-0.494 0.182,-0.433 0.182,-0.35C0.182,-0.314 0.186,-0.281 0.194,-0.252C0.202,-0.222 0.214,-0.197 0.231,-0.176C0.247,-0.155 0.267,-0.138 0.292,-0.127C0.316,-0.115 0.344,-0.109 0.376,-0.109C0.406,-0.109 0.431,-0.112 0.452,-0.118C0.473,-0.124 0.491,-0.132 0.506,-0.141L0.534,-0.029Z" style="fill-rule:nonzero;"/>
        </g>
    </g>
    <g transform="matrix(1.10223,0,0,1.10223,-0.469732,36.6999)">
        <g transform="matrix(11.7943,0,0,11.7943,24.2996,49.4417)">
            <path d="M0.569,-0.184L0.633,-0.184L0.633,-0.027C0.612,-0.016 0.585,-0.006 0.551,0.001C0.517,0.008 0.483,0.012 0.45,0.012C0.389,0.012 0.334,0.005 0.285,-0.009C0.236,-0.023 0.195,-0.045 0.162,-0.075C0.128,-0.104 0.102,-0.142 0.084,-0.187C0.066,-0.232 0.057,-0.287 0.057,-0.35C0.057,-0.415 0.067,-0.471 0.087,-0.517C0.107,-0.562 0.134,-0.6 0.168,-0.629C0.202,-0.658 0.241,-0.679 0.286,-0.692C0.331,-0.705 0.378,-0.712 0.427,-0.712C0.451,-0.712 0.473,-0.711 0.492,-0.71C0.511,-0.708 0.529,-0.705 0.545,-0.702C0.56,-0.699 0.575,-0.695 0.588,-0.69C0.601,-0.685 0.614,-0.68 0.627,-0.675L0.627,-0.504L0.563,-0.504L0.563,-0.609L0.549,-0.629C0.542,-0.632 0.53,-0.636 0.515,-0.641C0.499,-0.646 0.474,-0.648 0.439,-0.648C0.403,-0.648 0.369,-0.642 0.338,-0.631C0.307,-0.62 0.28,-0.602 0.257,-0.578C0.234,-0.554 0.215,-0.523 0.202,-0.486C0.189,-0.448 0.182,-0.403 0.182,-0.35C0.182,-0.255 0.206,-0.181 0.255,-0.13C0.303,-0.078 0.371,-0.052 0.458,-0.052C0.482,-0.052 0.502,-0.054 0.519,-0.058C0.535,-0.061 0.547,-0.066 0.555,-0.072L0.569,-0.091L0.569,-0.184Z" style="fill-rule:nonzero;"/>
        </g>
        <g transform="matrix(11.7943,0,0,11.7943,32.532,49.4417)">
            <path d="M0.464,-0.139C0.464,-0.124 0.464,-0.108 0.465,-0.093C0.466,-0.077 0.467,-0.063 0.468,-0.05L0.534,-0.05L0.534,-0L0.377,-0L0.367,-0.095L0.362,-0.095C0.359,-0.082 0.353,-0.069 0.344,-0.056C0.335,-0.043 0.323,-0.032 0.31,-0.022C0.296,-0.012 0.28,-0.004 0.261,0.002C0.242,0.008 0.222,0.011 0.199,0.011C0.176,0.011 0.156,0.008 0.137,0.001C0.118,-0.006 0.101,-0.015 0.087,-0.027C0.073,-0.039 0.062,-0.054 0.055,-0.071C0.047,-0.088 0.043,-0.107 0.043,-0.128C0.043,-0.161 0.05,-0.188 0.064,-0.209C0.077,-0.23 0.097,-0.247 0.124,-0.26C0.151,-0.272 0.184,-0.281 0.224,-0.286C0.264,-0.291 0.311,-0.294 0.364,-0.295C0.365,-0.306 0.366,-0.316 0.366,-0.326L0.366,-0.354C0.366,-0.395 0.359,-0.427 0.345,-0.449C0.331,-0.47 0.306,-0.481 0.27,-0.481C0.257,-0.481 0.242,-0.48 0.227,-0.479C0.212,-0.478 0.198,-0.474 0.185,-0.467L0.185,-0.375L0.095,-0.375L0.095,-0.486C0.119,-0.499 0.147,-0.51 0.18,-0.52C0.213,-0.53 0.251,-0.535 0.295,-0.535C0.333,-0.535 0.364,-0.53 0.387,-0.521C0.409,-0.511 0.427,-0.498 0.44,-0.483C0.452,-0.467 0.46,-0.449 0.464,-0.43C0.467,-0.41 0.469,-0.39 0.469,-0.371C0.469,-0.329 0.468,-0.289 0.467,-0.251C0.465,-0.212 0.464,-0.175 0.464,-0.139ZM0.245,-0.056C0.261,-0.056 0.275,-0.058 0.288,-0.064C0.301,-0.069 0.312,-0.075 0.322,-0.083C0.331,-0.09 0.339,-0.099 0.347,-0.108C0.354,-0.117 0.359,-0.126 0.364,-0.135L0.364,-0.254C0.321,-0.254 0.286,-0.251 0.259,-0.246C0.232,-0.24 0.21,-0.232 0.195,-0.223C0.18,-0.214 0.169,-0.202 0.164,-0.19C0.158,-0.177 0.155,-0.163 0.155,-0.148C0.155,-0.118 0.163,-0.095 0.179,-0.08C0.195,-0.064 0.217,-0.056 0.245,-0.056Z" style="fill-rule:nonzero;"/>
        </g>
        <g transform="matrix(11.7943,0,0,11.7943,39.243,49.4417)">
            <path d="M0.284,-0.435C0.269,-0.427 0.256,-0.418 0.246,-0.407C0.236,-0.396 0.225,-0.381 0.214,-0.361L0.214,-0.05L0.302,-0.05L0.302,-0L0.035,-0L0.035,-0.05L0.109,-0.05L0.109,-0.475L0.035,-0.475L0.035,-0.525L0.214,-0.525L0.214,-0.424L0.218,-0.424C0.229,-0.446 0.243,-0.465 0.258,-0.482C0.273,-0.498 0.291,-0.512 0.31,-0.525L0.406,-0.525L0.406,-0.435L0.284,-0.435Z" style="fill-rule:nonzero;"/>
        </g>
        <g transform="matrix(11.7943,0,0,11.7943,44.3499,49.4417)">
            <path d="M0.085,-0.7L0,-0.7L0,-0.75L0.19,-0.75L0.19,-0.422L0.193,-0.422C0.206,-0.457 0.227,-0.485 0.257,-0.505C0.287,-0.525 0.321,-0.535 0.358,-0.535C0.426,-0.535 0.478,-0.514 0.515,-0.471C0.551,-0.428 0.569,-0.362 0.569,-0.272C0.569,-0.179 0.544,-0.109 0.494,-0.062C0.443,-0.014 0.371,0.01 0.278,0.01C0.259,0.01 0.241,0.009 0.222,0.007C0.203,0.004 0.184,0.001 0.167,-0.003C0.149,-0.006 0.133,-0.01 0.119,-0.015C0.105,-0.02 0.094,-0.025 0.085,-0.03L0.085,-0.7ZM0.325,-0.468C0.289,-0.468 0.26,-0.457 0.239,-0.436C0.217,-0.414 0.201,-0.386 0.19,-0.352L0.19,-0.061C0.203,-0.054 0.22,-0.048 0.239,-0.044C0.258,-0.039 0.278,-0.037 0.3,-0.037C0.349,-0.037 0.388,-0.057 0.415,-0.097C0.442,-0.137 0.456,-0.195 0.456,-0.272C0.456,-0.299 0.454,-0.325 0.449,-0.349C0.444,-0.373 0.437,-0.394 0.426,-0.412C0.415,-0.429 0.402,-0.443 0.386,-0.453C0.369,-0.463 0.349,-0.468 0.325,-0.468Z" style="fill-rule:nonzero;"/>
        </g>
        <g transform="matrix(11.7943,0,0,11.7943,51.5916,49.4417)">
            <path d="M0.045,-0.262C0.045,-0.306 0.051,-0.345 0.064,-0.379C0.077,-0.413 0.095,-0.442 0.118,-0.465C0.14,-0.488 0.169,-0.505 0.202,-0.517C0.235,-0.529 0.271,-0.535 0.311,-0.535C0.358,-0.535 0.398,-0.529 0.432,-0.516C0.465,-0.502 0.493,-0.484 0.514,-0.461C0.535,-0.437 0.551,-0.408 0.562,-0.375C0.572,-0.341 0.577,-0.303 0.577,-0.262C0.577,-0.218 0.571,-0.179 0.559,-0.146C0.546,-0.112 0.529,-0.084 0.506,-0.061C0.483,-0.038 0.455,-0.02 0.422,-0.008C0.389,0.004 0.352,0.01 0.311,0.01C0.266,0.01 0.226,0.004 0.193,-0.01C0.16,-0.023 0.132,-0.041 0.11,-0.065C0.088,-0.088 0.072,-0.117 0.061,-0.15C0.05,-0.183 0.045,-0.221 0.045,-0.262ZM0.158,-0.262C0.158,-0.23 0.161,-0.2 0.167,-0.173C0.173,-0.146 0.183,-0.122 0.197,-0.102C0.21,-0.082 0.228,-0.066 0.25,-0.055C0.271,-0.043 0.298,-0.037 0.329,-0.037C0.368,-0.037 0.401,-0.055 0.426,-0.091C0.451,-0.127 0.464,-0.184 0.464,-0.262C0.464,-0.294 0.461,-0.324 0.455,-0.352C0.449,-0.379 0.44,-0.403 0.427,-0.424C0.413,-0.444 0.397,-0.46 0.377,-0.471C0.356,-0.482 0.331,-0.488 0.302,-0.488C0.258,-0.488 0.223,-0.47 0.197,-0.434C0.171,-0.398 0.158,-0.341 0.158,-0.262Z" style="fill-rule:nonzero;"/>
        </g>
        <g transform="matrix(11.7943,0,0,11.7943,58.9277,49.4417)">
            <path d="M0.651,-0L0.406,-0L0.406,-0.05L0.472,-0.05L0.472,-0.301C0.472,-0.354 0.464,-0.395 0.448,-0.424C0.432,-0.453 0.403,-0.468 0.36,-0.468C0.341,-0.468 0.324,-0.465 0.309,-0.459C0.293,-0.453 0.279,-0.445 0.267,-0.435C0.254,-0.425 0.244,-0.413 0.235,-0.4C0.226,-0.387 0.219,-0.373 0.214,-0.358L0.214,-0.05L0.28,-0.05L0.28,-0L0.035,-0L0.035,-0.05L0.109,-0.05L0.109,-0.475L0.035,-0.475L0.035,-0.525L0.214,-0.525L0.214,-0.421L0.215,-0.421C0.23,-0.453 0.253,-0.48 0.283,-0.502C0.312,-0.524 0.348,-0.535 0.39,-0.535C0.42,-0.535 0.447,-0.532 0.47,-0.526C0.493,-0.519 0.513,-0.508 0.529,-0.491C0.544,-0.474 0.556,-0.452 0.565,-0.424C0.573,-0.396 0.577,-0.36 0.577,-0.317L0.577,-0.05L0.651,-0.05L0.651,-0Z" style="fill-rule:nonzero;"/>
        </g>
    </g>
    <g transform="matrix(1.646,0,0,1.6168,-32.6727,-63.2475)">
        <g transform="matrix(8.04058,0,0,8.04058,24.2996,49.4417)">
            <path d="M0.565,-0.212C0.565,-0.181 0.559,-0.151 0.547,-0.124C0.535,-0.097 0.518,-0.073 0.497,-0.053C0.475,-0.033 0.449,-0.017 0.418,-0.006C0.387,0.006 0.353,0.012 0.315,0.012C0.273,0.012 0.236,0.006 0.203,-0.008C0.17,-0.021 0.143,-0.039 0.121,-0.062C0.099,-0.085 0.082,-0.113 0.071,-0.145C0.06,-0.177 0.054,-0.212 0.054,-0.25C0.054,-0.313 0.066,-0.37 0.089,-0.421C0.112,-0.472 0.142,-0.517 0.181,-0.556C0.22,-0.595 0.264,-0.627 0.314,-0.652C0.364,-0.677 0.416,-0.696 0.47,-0.707L0.484,-0.657C0.449,-0.647 0.415,-0.633 0.38,-0.615C0.345,-0.597 0.313,-0.575 0.284,-0.549C0.255,-0.523 0.23,-0.493 0.21,-0.459C0.189,-0.425 0.177,-0.387 0.172,-0.345C0.178,-0.354 0.187,-0.362 0.198,-0.371C0.209,-0.38 0.221,-0.387 0.236,-0.394C0.251,-0.401 0.267,-0.406 0.286,-0.411C0.304,-0.415 0.323,-0.417 0.344,-0.417C0.376,-0.417 0.406,-0.412 0.433,-0.403C0.46,-0.394 0.484,-0.38 0.503,-0.363C0.522,-0.346 0.538,-0.324 0.549,-0.299C0.56,-0.274 0.565,-0.245 0.565,-0.212ZM0.453,-0.203C0.453,-0.251 0.441,-0.29 0.416,-0.319C0.391,-0.348 0.355,-0.363 0.31,-0.363C0.275,-0.363 0.245,-0.355 0.221,-0.34C0.197,-0.325 0.179,-0.307 0.168,-0.288C0.167,-0.279 0.166,-0.268 0.166,-0.255L0.166,-0.225C0.166,-0.204 0.169,-0.182 0.176,-0.16C0.182,-0.137 0.191,-0.117 0.204,-0.099C0.217,-0.08 0.233,-0.065 0.253,-0.053C0.272,-0.041 0.295,-0.035 0.321,-0.035C0.344,-0.035 0.364,-0.04 0.381,-0.05C0.398,-0.059 0.411,-0.072 0.422,-0.088C0.433,-0.104 0.44,-0.122 0.446,-0.142C0.451,-0.162 0.453,-0.182 0.453,-0.203Z" style="fill-rule:nonzero;"/>
        </g>
    </g>
</svg>
